<svg id="Layer_1" data-name="Layer 1" xmlns="http://www.w3.org/2000/svg" viewBox="0 0 1281.66 445.9"><defs><style>.cls-1{fill:none;}.cls-2{fill:#2158f3;}</style></defs><rect class="cls-1" width="1281.66" height="445.9"/><path class="cls-2" d="M236.25,284.9H264.6c-5.25,36.75-34.3,67.2-83.65,67.2-50,0-87.15-33.6-87.15-88.55V259.7c0-54.95,37.1-88.55,87.15-88.55,49.35,0,76.65,30.8,82.25,68.25h-28C231,215.6,213.85,196,181.3,196c-34,0-59.85,24.15-59.85,64.05v3.15c0,39.9,25.9,64.05,59.85,64.05C213.5,327.25,231,309.4,236.25,284.9ZM634.9,323.75V347.2H610.75c-15.4,0-25.55-9.1-25.55-23.8v-1.75H581c-7.35,13.65-21.7,30.45-57,30.45-36.4,0-64.4-19.25-64.4-53.55,0-34.65,28-51.8,64.75-51.8h57.75v-12.6c0-24.15-14-39.2-42-39.2-26.95,0-42,14.7-47.25,36.75H465.15V174.3c0-33.25-19.25-56.35-47.25-56.35-30.45,0-49,24.85-49,53.55,36.05,3.5,59.5,24.85,61.25,60.2h-26.6c-2.8-28.35-21.7-37.45-44.8-37.45-23.45,0-37.8,9.1-37.8,25.55s13.65,22.75,35.35,26.6l14.35,2.45c36.05,6.3,64.4,17.5,64.4,50.75,0,33.6-26.95,52.5-68.95,52.5-42.7,0-77.7-18.9-80.85-67.2H312.2c4.9,33.6,28,44.1,53.9,44.1,25.55,0,41.65-10.85,41.65-28.35S392.7,277.2,367.85,273l-14.35-2.45c-33.95-5.95-59.85-20-59.85-50.4,0-25.9,18.55-43.05,47.6-47.6.35-42.35,29.4-78.75,76.65-78.75,44.8,0,72.8,32.9,72.8,81.9v13h4.2c11.2-15.75,33.6-17.5,45.5-17.5,42.7,0,69,23.8,69,64.75v77.35c0,7,3.5,10.5,9.8,10.5Zm-52.85-54.6h-56.7c-22.05,0-37.8,9.45-37.8,28.7S503.3,328.3,527.1,328.3c32.9,0,54.95-20.3,54.95-55.3Zm147.33-77.94v-.83c0-11.93,8.06-19.23,18.92-19.23s16.57,6.69,17.79,14.21l-5.85,1.22c-.76-5.47-4.49-10-11.86-10s-13,5.25-13,13.91v.69c0,8.66,5.63,13.91,13,13.91s11.17-4.34,12.09-10l5.92,1.3c-1.59,7.45-7.37,14.13-18.09,14.13S729.38,203.15,729.38,191.21Zm45.45.08v-1c0-11.63,7.76-19.15,19-19.15s19,7.52,19,19.15v1c0,11.63-7.76,19.15-19,19.15S774.83,202.92,774.83,191.29Zm32-.15v-.69c0-8.51-5.17-13.91-13-13.91s-13,5.4-13,13.91v.69c0,8.51,5.17,13.91,13,13.91S806.83,199.65,806.83,191.14Zm16.8-18.93h5.85v6.31h1.07c1.59-3.57,5.17-7,12.77-7,8.21,0,14.74,5.39,14.74,15.35v22.5h-6v-22c0-7.37-4-10.57-10.26-10.57-7.15,0-12.16,4.72-12.16,13.91v18.7h-6Zm46.59,0h5.86v6.31h1.06c1.6-3.57,5.17-7,12.77-7,8.21,0,14.75,5.39,14.75,15.35v22.5h-6v-22c0-7.37-4-10.57-10.26-10.57-7.14,0-12.16,4.72-12.16,13.91v18.7h-6ZM915,191.29v-.91c0-11.48,7.6-19.23,18.47-19.23,10.57,0,17.86,7.14,17.86,18.47v2.73H921.07c.23,8,5.55,12.77,12.93,12.77,6.38,0,9.5-3.34,11.32-7.45l5.17,2.51c-2.28,4.72-6.69,10.26-16.65,10.26C922.52,210.44,915,202.77,915,191.29Zm30.25-3.88c-.45-6.91-5.09-10.94-11.78-10.94s-11.4,4-12.31,10.94Zm14.75,3.8v-.83c0-11.93,8.06-19.23,18.93-19.23,10.71,0,16.57,6.69,17.78,14.21l-5.85,1.22c-.76-5.47-4.48-10-11.86-10s-13,5.25-13,13.91v.69c0,8.66,5.62,13.91,13,13.91s11.18-4.34,12.09-10l5.93,1.3c-1.6,7.45-7.38,14.13-18.09,14.13C968.05,210.44,960,203.15,960,191.21Zm52.83,11.63V177.46h-11.17v-5.25h11.17V159h6v13.22H1031v5.25h-12.16v24.4c0,1.52.61,2.28,2.21,2.28h8.28v5.24h-9.88C1015.17,209.38,1012.82,206.87,1012.82,202.84Zm26.3-41a4.6,4.6,0,1,1,4.56,4.56A4.45,4.45,0,0,1,1039.12,161.88Zm1.59,10.33h6v37.17h-6Zm14.75,0h6.38L1073,204.9h1.06l11.17-32.69h6.39l-13.3,37.17h-9.58Zm43.25-10.33a4.6,4.6,0,1,1,4.56,4.56A4.45,4.45,0,0,1,1098.71,161.88Zm1.59,10.33h6v37.17h-6ZM1126,202.84V177.46h-11.17v-5.25H1126V159h6v13.22h12.16v5.25H1132v24.4c0,1.52.61,2.28,2.2,2.28h8.29v5.24h-9.88C1128.35,209.38,1126,206.87,1126,202.84Zm32.38,16.42h21.29c1.59,0,2.2-.76,2.2-2.28V203.45h-1.06c-1.6,3.27-5.1,6.61-12.7,6.61-8.21,0-14.67-5.32-14.67-15.27V172.21h6v22.12c0,7.37,4,10.49,10.26,10.49,7.07,0,12.16-4.64,12.16-13.91v-18.7h6V218c0,4-2.43,6.54-6.68,6.54h-22.81Zm-429.6,46.79,5.7-1.29c1.07,7.3,6.08,9.58,11.71,9.58s9-2.36,9-6.16-3.27-5-8.66-6l-3.12-.54c-7.3-1.29-13-4.25-13-10.94s5.63-10.64,14.14-10.64,13.76,3.95,15.28,10.87l-5.63,1.44c-.91-5.32-4.63-7.3-9.65-7.3s-8.21,2-8.21,5.55,3,4.94,7.68,5.78l3.11.53c7.83,1.37,14,3.8,14,11s-5.85,11.4-15,11.4C736.9,279.35,730.06,275.25,728.77,266.05Zm48.72,5.7V246.37H766.32v-5.25h11.17V227.9h6v13.22h12.16v5.25H783.5v24.39c0,1.52.61,2.28,2.2,2.28H794v5.25h-9.88C779.85,278.29,777.49,275.78,777.49,271.75Zm25.16-4c0-7.52,6-11.24,14-11.24h12.54v-2.74c0-5.25-3-8.51-9.2-8.51-6,0-9.27,3.19-10.41,8L804,251.38c1.74-6.23,6.76-11.32,16.11-11.32s15.05,5.17,15.05,14.06v16.8c0,1.52.76,2.28,2.13,2.28h3.42v5.09h-5.25c-3.34,0-5.55-2-5.55-5.17v-.38H829c-1.59,3-4.71,6.61-12.39,6.61C808.66,279.35,802.65,275.17,802.65,267.72Zm26.53-5.54v-.84H816.87c-4.79,0-8.21,2.05-8.21,6.23s3.42,6.61,8.59,6.61C824.39,274.18,829.18,269.78,829.18,262.18Zm19.69-21.06h5.85v6.31h1.06c1.6-3.57,5.17-7,12.77-7,8.21,0,14.75,5.39,14.75,15.35v22.5h-6v-22c0-7.38-4-10.57-10.26-10.57-7.14,0-12.16,4.71-12.16,13.91v18.7h-6Zm44.77,19.08v-1c0-11.86,7.83-19.15,17.55-19.15,7.76,0,11.63,3.49,13.53,6.91h1.07V225.08h6v53.21h-5.85v-6.16h-1.06c-2.06,3.73-5.93,7.22-13.69,7.22C901.54,279.35,893.64,272.13,893.64,260.2Zm32.15-.15v-.69c0-8.81-5.32-14-13-14s-13.07,5.17-13.07,14v.69c0,8.81,5.39,14,13.07,14S925.79,268.86,925.79,260.05Zm16.11,7.67c0-7.52,6-11.24,14-11.24h12.54v-2.74c0-5.25-3-8.51-9.2-8.51-6,0-9.27,3.19-10.41,8l-5.62-1.83c1.74-6.23,6.76-11.32,16.11-11.32s15.05,5.17,15.05,14.06v16.8c0,1.52.76,2.28,2.13,2.28h3.42v5.09h-5.25c-3.34,0-5.55-2-5.55-5.17v-.38h-.91c-1.59,3-4.71,6.61-12.39,6.61C947.91,279.35,941.9,275.17,941.9,267.72Zm26.53-5.54v-.84H956.12c-4.79,0-8.21,2.05-8.21,6.23s3.42,6.61,8.59,6.61C963.64,274.18,968.43,269.78,968.43,262.18Zm19.69-21.06H994v4.56H995c1.3-3.27,4-4.71,8.44-4.71h4.41v5.47h-4.79c-5.4,0-9,3-9,9.2v22.65h-6Zm25.46,19.08v-1c0-11.86,7.83-19.15,17.56-19.15,7.75,0,11.63,3.49,13.53,6.91h1.06V225.08h6v53.21h-5.86v-6.16h-1.06c-2,3.73-5.93,7.22-13.68,7.22C1021.49,279.35,1013.58,272.13,1013.58,260.2Zm32.15-.15v-.69c0-8.81-5.32-14-13-14s-13.07,5.17-13.07,14v.69c0,8.81,5.4,14,13.07,14S1045.73,268.86,1045.73,260.05Zm16.19,6,5.7-1.29c1.07,7.3,6.08,9.58,11.71,9.58s9-2.36,9-6.16-3.27-5-8.66-6l-3.12-.54c-7.29-1.29-13-4.25-13-10.94s5.63-10.64,14.14-10.64c8.36,0,13.76,3.95,15.28,10.87l-5.63,1.44c-.91-5.32-4.63-7.3-9.65-7.3s-8.21,2-8.21,5.55,3,4.94,7.68,5.78l3.12.53c7.82,1.37,14,3.8,14,11s-5.85,11.4-15,11.4S1063.21,275.25,1061.92,266.05ZM728.7,336.63c0-7.52,6-11.25,14-11.25h12.54v-2.73c0-5.25-3-8.52-9.2-8.52-6,0-9.27,3.2-10.41,8L730,320.29c1.75-6.23,6.76-11.32,16.11-11.32s15,5.16,15,14.06v16.8c0,1.52.76,2.28,2.13,2.28h3.42v5.09h-5.25c-3.34,0-5.54-2-5.54-5.17v-.38H755c-1.59,3-4.71,6.61-12.39,6.61C734.7,348.26,728.7,344.08,728.7,336.63Zm26.52-5.55v-.83H742.91c-4.79,0-8.21,2.05-8.21,6.23s3.42,6.61,8.59,6.61C750.43,343.09,755.22,338.69,755.22,331.08ZM774.91,294h6V347.2h-6Zm18.62,0h6V347.2h-6Zm17,5.7a4.6,4.6,0,1,1,4.56,4.56A4.45,4.45,0,0,1,810.56,299.69ZM812.15,310h6V347.2h-6Zm16.12,26.6c0-7.52,6-11.25,14-11.25h12.54v-2.73c0-5.25-3-8.52-9.19-8.52s-9.28,3.2-10.42,8l-5.62-1.83c1.75-6.23,6.76-11.32,16.11-11.32s15.05,5.16,15.05,14.06v16.8c0,1.52.76,2.28,2.13,2.28h3.42v5.09H861c-3.35,0-5.55-2-5.55-5.17v-.38h-.91c-1.6,3-4.72,6.61-12.39,6.61C834.27,348.26,828.27,344.08,828.27,336.63Zm26.52-5.55v-.83H842.48c-4.79,0-8.21,2.05-8.21,6.23s3.42,6.61,8.59,6.61C850,343.09,854.79,338.69,854.79,331.08ZM874.48,310h5.85v6.31h1.07c1.59-3.57,5.17-7,12.77-7,8.21,0,14.74,5.39,14.74,15.35v22.5h-6v-22c0-7.38-4-10.57-10.26-10.57-7.15,0-12.16,4.71-12.16,13.91v18.7h-6Zm44.77,19v-.83c0-11.94,8.06-19.23,18.93-19.23,10.71,0,16.56,6.69,17.78,14.21l-5.85,1.22c-.76-5.48-4.49-10-11.86-10s-13,5.25-13,13.91V329c0,8.66,5.63,13.91,13,13.91s11.17-4.34,12.09-10l5.93,1.29c-1.6,7.45-7.38,14.14-18.09,14.14C927.31,348.26,919.25,341,919.25,329Zm45.45.08v-.91c0-11.48,7.6-19.23,18.47-19.23,10.57,0,17.86,7.14,17.86,18.47v2.73H970.78c.23,8,5.55,12.77,12.92,12.77,6.39,0,9.51-3.34,11.33-7.45l5.17,2.51c-2.28,4.71-6.69,10.26-16.65,10.26C972.23,348.26,964.7,340.59,964.7,329.11ZM995,325.23c-.45-6.91-5.09-10.94-11.78-10.94s-11.4,4-12.31,10.94Z"/></svg>