<?xml version="1.0" encoding="UTF-8"?>
<svg xmlns="http://www.w3.org/2000/svg" version="1.1" viewBox="0 0 988.56 220.43">
  <defs>
    <style>
      .cls-1 {
        fill: none;
      }

      .cls-2 {
        fill: #039;
      }

      .cls-3 {
        fill: #fff;
      }

      .cls-4 {
        fill: #ccffd9;
      }

      .cls-5 {
        font-family: Arial-BoldMT, Arial;
        font-size: 65px;
        font-weight: 700;
      }

      .cls-6 {
        display: none;
      }
    </style>
  </defs>
  <!-- Generator: Adobe Illustrator 28.7.4, SVG Export Plug-In . SVG Version: 1.2.0 Build 166)  -->
  <g>
    <g id="Layer_1">
      <rect class="cls-1" x="10.03" y="10.04" width="294.95" height="200.28"/>
      <path class="cls-3" d="M157.5,112.08"/>
      <path class="cls-2" d="M157.5,110.08"/>
      <path d="M15.7,15.54v189.07h283.6V15.54H15.7ZM85.72,107.26l7.49.02,2.29-7.17,2.29,7.16h7.49l-6.07,4.37,2.27,7.06-5.98-4.37-5.98,4.37,2.28-7.06-6.08-4.37ZM109.8,149.72l-5.98-4.38-5.98,4.38,2.28-7.06-6.07-4.37h7.49s2.29-7.16,2.29-7.16l2.29,7.16h7.49l-6.07,4.37,2.28,7.06ZM107.52,80.7l2.28,7.06-5.98-4.37-5.98,4.37,2.28-7.06-6.07-4.37h7.49s2.29-7.16,2.29-7.16l2.29,7.16h7.49l-6.07,4.37ZM124.18,53.63l2.29-7.16,2.29,7.16h7.49l-6.08,4.37,2.27,7.06-5.98-4.37-5.98,4.37,2.27-7.06-6.07-4.37h7.49ZM132.5,172.42l-5.98-4.37-5.98,4.37,2.27-7.06-6.07-4.37h7.49s2.29-7.15,2.29-7.15l2.29,7.15h7.49l-6.07,4.37,2.27,7.06ZM155.15,45.31l2.29-7.16,2.29,7.15h7.49l-6.08,4.37,2.28,7.06-5.98-4.37-5.98,4.37,2.28-7.06-6.07-4.37h7.49ZM163.43,180.65l-5.98-4.37-5.98,4.37,2.27-7.06-6.07-4.37h7.49s2.29-7.16,2.29-7.16l2.29,7.16h7.49l-6.08,4.37,2.28,7.06ZM194.37,172.42l-5.98-4.37-5.98,4.37,2.27-7.06-6.07-4.37h7.48s2.3-7.15,2.3-7.15l2.29,7.15h7.49l-6.08,4.37,2.28,7.06ZM192.18,58l2.27,7.06-5.98-4.38-5.99,4.38,2.27-7.06-6.07-4.38,7.49.02,2.29-7.16,2.29,7.15h7.5l-6.08,4.38ZM208.79,76.26l2.3-7.16,2.3,7.16h7.48l-6.08,4.36,2.28,7.06-5.98-4.37-5.98,4.37,2.28-7.06-6.08-4.36h7.48ZM217.07,149.72l-5.98-4.38-5.98,4.38,2.28-7.06-6.08-4.37h7.48s2.3-7.16,2.3-7.16l2.3,7.16h7.48l-6.08,4.37,2.28,7.06ZM225.29,118.61l-5.98-4.38-5.98,4.38,2.27-7.06-6.08-4.37h7.49s2.29-7.16,2.29-7.16l2.3,7.16h7.49l-6.08,4.37,2.27,7.06Z"/>
      <text class="cls-5" transform="translate(335.54 86.71)"><tspan x="0" y="0">Lorem Ipsum auf</tspan><tspan x="0" y="78">die European Union</tspan></text>
    </g>
    <g id="Layer_2" class="cls-6">
      <rect class="cls-4" x="299.31" y="97.2" width="40.98" height="24.63"/>
      <rect class="cls-4" x="947.87" y="97.2" width="40.98" height="24.63"/>
      <rect class="cls-4" x=".05" y="104.69" width="10" height="10"/>
      <rect class="cls-4" x="355.51" y="0" width="10" height="10"/>
      <rect class="cls-4" x="10.04" y="210.36" width="10" height="10"/>
    </g>
  </g>
</svg>