<?xml version="1.0" encoding="UTF-8"?>
<svg id="uuid-1a06066e-f3db-4a4b-862c-c5e9911f4a94" data-name="Layer 1" xmlns="http://www.w3.org/2000/svg" viewBox="0 0 2400 671.16">
  <path d="M68.8,615.27v23.57h8.23c2.47,0,3.77-.69,4.46-2.21.43-.95.61-3.16.78-5.2h3.68v19.15h-3.68c-.09-1.34-.26-3.99-.78-5.11-.61-1.6-1.99-2.3-4.46-2.3h-8.23v18.37c0,2.47.78,3.64,2.3,4.25.87.35,2.9.52,4.9.69v3.42h-25.08v-3.42c1.13-.09,3.51-.17,4.38-.61,1.65-.52,2.21-1.86,2.21-4.16v-42.28c0-2.64-.61-3.81-2.12-4.42-.78-.35-2.47-.52-4.46-.69v-3.42h43.84v14.47h-3.25c-2.12-8.19-5.33-10.14-12.78-10.14h-9.92v.04Z" style="fill: #000; stroke-width: 0px;"/>
  <path d="M101.38,666.48c1.21-.09,3.6-.26,4.55-.69,1.65-.61,2.04-1.95,2.04-4.42v-41.94c0-2.64-.61-3.81-2.12-4.42-.78-.35-2.47-.52-4.46-.69v-3.42h43.84v14.47h-3.25c-2.12-8.19-5.33-10.14-12.78-10.14h-9.92v22.14h7.88c2.47,0,3.86-.69,4.46-2.21.43-.95.69-3.16.87-5.2h3.6v19.15h-3.6c-.17-1.34-.35-3.99-.87-5.03-.61-1.69-1.99-2.38-4.46-2.38h-7.88v23.83h11.31c8.4,0,11.22-3.64,14.47-13.34l2.9.35-1.3,17.37h-45.32v-3.42h.04Z" style="fill: #000; stroke-width: 0px;"/>
  <path d="M156.01,666.48c1.47-.09,3.34-.17,4.38-.61,1.56-.52,2.21-1.86,2.21-4.16v-42.63c0-2.3-.69-3.64-2.21-4.16-1.04-.35-2.3-.35-4.38-.61v-3.42h27.25c17.81,0,29.37,10.48,29.37,28.59s-12.52,30.37-30.33,30.37h-26.3v-3.42.04ZM173.94,615.27v50.3h7.28c15.08,0,18.93-12.09,18.93-25.17,0-14.38-4.98-25.08-18.59-25.08h-7.62v-.04Z" style="fill: #000; stroke-width: 0px;"/>
  <path d="M220.47,666.48c1.21-.09,3.6-.26,4.55-.69,1.65-.61,2.04-1.95,2.04-4.42v-41.94c0-2.64-.61-3.81-2.12-4.42-.78-.35-2.47-.52-4.46-.69v-3.42h43.84v14.47h-3.25c-2.12-8.19-5.33-10.14-12.78-10.14h-9.92v22.14h7.88c2.47,0,3.86-.69,4.46-2.21.43-.95.69-3.16.87-5.2h3.6v19.15h-3.6c-.17-1.34-.35-3.99-.87-5.03-.61-1.69-1.95-2.38-4.46-2.38h-7.88v23.83h11.31c8.4,0,11.22-3.64,14.47-13.34l2.9.35-1.3,17.37h-45.32v-3.42h.04Z" style="fill: #000; stroke-width: 0px;"/>
  <path d="M309.24,641.79l13.26,18.11c3.34,4.51,5.98,6.02,10.27,6.54l-.26,3.42h-16.38l-18.76-26.99h-4.38v18.8c0,2.3.78,3.64,2.3,4.16,1.21.35,2.9.43,4.98.61v3.42h-25.17v-3.42c1.47-.09,3.34-.17,4.38-.61,1.56-.52,2.21-1.86,2.21-4.16v-42.63c0-2.3-.69-3.64-2.21-4.16-1.04-.35-2.3-.35-4.38-.61v-3.42h28.46c10.35,0,19.02,4.16,19.02,14.82,0,8.27-5.72,13.78-13.34,16.07v.04ZM293.04,615.27v23.22h5.76c7.97,0,11.57-3.81,11.57-12,0-6.97-3.6-11.22-10.18-11.22h-7.15Z" style="fill: #000; stroke-width: 0px;"/>
  <path d="M346.32,665.87c.78.17,2.9.43,4.9.61v3.42h-19.8v-3.42c1.21-.09,2.82-.61,3.77-.95,1.73-.61,2.64-1.69,3.42-3.81l20.41-51.9h5.5l18.76,51.9c.78,2.3,1.73,3.25,3.42,3.81.95.35,2.38.87,3.6.95v3.42h-25.08v-3.42c1.82-.17,3.6-.43,4.55-.69,1.65-.52,2.99-1.78,2.21-4.07l-4.12-12.26h-19.37l-4.64,12.26c-.78,2.04.17,3.64,2.47,4.16ZM350.18,644.95h16.12l-7.45-22.4-8.66,22.4Z" style="fill: #000; stroke-width: 0px;"/>
  <path d="M395.1,666.48c1.3-.09,3.68-.26,4.64-.69,1.47-.69,1.95-1.95,1.95-4.42v-42.28c0-2.38-.69-3.6-2.21-4.16-.78-.35-2.64-.43-4.38-.61v-3.42h24.61v3.42c-1.21.09-3.51.17-4.46.61-1.56.52-2.21,1.86-2.21,4.16v46.44h7.8c8.84,0,11.91-4.25,15.16-13.95l2.99.35-1.21,17.94h-42.67v-3.42.04Z" style="fill: #000; stroke-width: 0px;"/>
  <path d="M485.48,661.72c0,2.38.74,3.6,2.21,4.16.74.35,2.51.43,4.12.61v3.42h-23.26v-3.42c1.04-.09,3.34-.17,4.12-.61,1.56-.52,2.12-1.86,2.12-4.16v-42.63c0-2.38-.65-3.6-2.12-4.16-.74-.35-2.51-.43-4.12-.61v-3.42h23.26v3.42c-1.13.09-3.34.17-4.2.61-1.47.52-2.12,1.86-2.12,4.16v42.63Z" style="fill: #000; stroke-width: 0px;"/>
  <path d="M544.91,670.21l-33.01-46.53v34.96c0,3.34.95,5.2,2.6,6.28,1.39.95,3.16,1.52,5.2,1.78v3.16h-20.84v-3.16c1.69-.26,3.25-.69,4.64-1.43,1.86-1.04,3.16-3.08,3.16-6.63v-34.7c0-5.89-2.21-9.18-7.36-9.96v-3.08h16.16l30.11,41.24v-30.02c0-3.34-.95-5.2-2.6-6.28-1.39-.95-3.16-1.52-5.2-1.78v-3.16h20.92v3.16c-1.69.26-3.25.69-4.64,1.43-1.86,1.04-3.16,3.08-3.16,6.63v48.05h-5.94l-.04.04Z" style="fill: #000; stroke-width: 0px;"/>
  <path d="M581.78,615.27v23.57h7.8c2.34,0,3.55-.69,4.2-2.21.39-.95.56-3.16.74-5.2h3.51v19.15h-3.51c-.09-1.34-.26-3.99-.74-5.11-.56-1.6-1.86-2.3-4.2-2.3h-7.8v18.37c0,2.47.74,3.64,2.21,4.25.82.35,2.77.52,4.64.69v3.42h-23.78v-3.42c1.04-.09,3.34-.17,4.16-.61,1.56-.52,2.12-1.86,2.12-4.16v-42.28c0-2.64-.56-3.81-2.04-4.42-.74-.35-2.34-.52-4.2-.69v-3.42h41.55v14.47h-3.08c-2.04-8.19-5.03-10.14-12.09-10.14h-9.4l-.09.04Z" style="fill: #000; stroke-width: 0px;"/>
  <path d="M669.64,639.92c0,17.68-11.91,31.24-29.03,31.24-16.16,0-27.9-12-27.9-30.28s12.35-31.32,28.81-31.32,28.16,12.95,28.16,30.37h-.04ZM657.77,640.36c0-14.73-3.9-26.64-16.81-26.64s-16.46,12.26-16.46,26.56c0,15.99,4.16,26.56,16.29,26.56,13.65,0,16.94-13.26,16.94-26.47h.04Z" style="fill: #000; stroke-width: 0px;"/>
  <path d="M709.11,641.79l12.56,18.11c3.16,4.51,5.68,6.02,9.75,6.54l-.26,3.42h-15.51l-17.76-26.99h-4.16v18.8c0,2.3.74,3.64,2.21,4.16,1.13.35,2.77.43,4.72.61v3.42h-23.83v-3.42c1.39-.09,3.16-.17,4.12-.61,1.47-.52,2.12-1.86,2.12-4.16v-42.63c0-2.3-.65-3.64-2.12-4.16-.95-.35-2.21-.35-4.12-.61v-3.42h26.95c9.83,0,18.02,4.16,18.02,14.82,0,8.27-5.42,13.78-12.65,16.07l-.04.04ZM693.77,615.27v23.22h5.42c7.54,0,10.96-3.81,10.96-12,0-6.97-3.42-11.22-9.66-11.22h-6.72Z" style="fill: #000; stroke-width: 0px;"/>
  <path d="M795.71,661.72c0,2.38.65,3.6,2.12,4.16.74.35,2.51.43,4.16.61v3.42h-23.26v-3.42c1.13-.09,3.34-.17,4.2-.61,1.47-.52,2.12-1.86,2.12-4.16v-39.73l-17.76,36.09h-3.08l-17.76-35.91v36.48c0,3.34,1,5.2,2.6,6.28,1.39.95,3.16,1.52,5.2,1.78v3.16h-20.92v-3.16c1.69-.26,3.25-.69,4.64-1.43,1.86-1.04,3.16-3.08,3.16-6.63v-38.12c0-2.73-.56-4.16-2.04-5.03-.91-.69-2.99-1.04-5.03-1.17v-3.42h17.59l16.72,33.88,16.94-33.88h16.72v3.42c-1.04.09-3.34.17-4.16.61-1.56.52-2.12,1.86-2.12,4.16v42.63h-.04Z" style="fill: #000; stroke-width: 0px;"/>
  <path d="M819.8,665.87c.74.17,2.77.43,4.64.61v3.42h-18.76v-3.42c1.13-.09,2.69-.61,3.55-.95,1.6-.61,2.51-1.69,3.25-3.81l19.32-51.9h5.2l17.76,51.9c.74,2.3,1.6,3.25,3.25,3.81.91.35,2.25.87,3.42.95v3.42h-23.78v-3.42c1.69-.17,3.42-.43,4.29-.69,1.56-.52,2.86-1.78,2.12-4.07l-3.9-12.26h-18.33l-4.38,12.26c-.74,2.04.17,3.64,2.34,4.16h0ZM823.44,644.95h15.25l-7.06-22.4-8.19,22.4Z" style="fill: #000; stroke-width: 0px;"/>
  <path d="M889.81,615.1v46.62c0,2.3.65,3.64,2.12,4.16,1.04.35,2.21.35,4.2.61v3.42h-23.35v-3.42c1.47-.09,3.25-.17,4.2-.61,1.47-.52,2.12-1.86,2.12-4.16v-46.62h-3.34c-7.32,0-10.53,3.08-12.56,11.22h-2.9v-15.38h48.35v15.38h-2.9c-2.04-8.19-5.2-11.22-12.48-11.22h-3.47Z" style="fill: #000; stroke-width: 0px;"/>
  <path d="M931.7,661.72c0,2.38.74,3.6,2.21,4.16.74.35,2.51.43,4.12.61v3.42h-23.26v-3.42c1.04-.09,3.34-.17,4.12-.61,1.56-.52,2.12-1.86,2.12-4.16v-42.63c0-2.38-.65-3.6-2.12-4.16-.74-.35-2.51-.43-4.12-.61v-3.42h23.26v3.42c-1.13.09-3.34.17-4.2.61-1.47.52-2.12,1.86-2.12,4.16v42.63Z" style="fill: #000; stroke-width: 0px;"/>
  <path d="M1002.27,639.92c0,17.68-11.91,31.24-29.03,31.24-16.16,0-27.9-12-27.9-30.28s12.35-31.32,28.81-31.32,28.16,12.95,28.16,30.37h-.04ZM990.45,640.36c0-14.73-3.9-26.64-16.81-26.64s-16.46,12.26-16.46,26.56c0,15.99,4.16,26.56,16.29,26.56,13.65,0,16.94-13.26,16.94-26.47h.04Z" style="fill: #000; stroke-width: 0px;"/>
  <path d="M1054.57,670.21l-33.01-46.53v34.96c0,3.34.95,5.2,2.6,6.28,1.39.95,3.16,1.52,5.2,1.78v3.16h-20.84v-3.16c1.69-.26,3.25-.69,4.64-1.43,1.86-1.04,3.16-3.08,3.16-6.63v-34.7c0-5.89-2.21-9.18-7.36-9.96v-3.08h16.16l30.11,41.24v-30.02c0-3.34-.95-5.2-2.6-6.28-1.39-.95-3.16-1.52-5.2-1.78v-3.16h20.92v3.16c-1.69.26-3.25.69-4.64,1.43-1.86,1.04-3.16,3.08-3.16,6.63v48.05h-5.94l-.04.04Z" style="fill: #000; stroke-width: 0px;"/>
  <path d="M1113.83,671.16c-5.76,0-12.61-1.43-18.24-4.68v-15.34h2.69c3.6,11.31,9.36,15.38,16.98,15.38s11.05-3.81,11.05-9.36-3.86-9.01-9.7-11.13l-6.46-2.47c-7.93-2.99-14.21-7.15-14.21-15.99,0-9.44,7.1-18.02,21.31-17.94,5.76,0,11.44,1.43,17.07,4.68v15.21h-3.34c-2.77-10.87-7.02-15.64-14.73-15.64-6.93,0-10.79,3.81-10.79,9.53s3.94,8.27,8.71,10.05l6.63,2.47c10.44,3.9,15.55,8.4,15.55,16.59,0,11.13-9.53,18.63-22.48,18.63h-.04Z" style="fill: #000; stroke-width: 0px;"/>
  <path d="M1144.68,666.48c1.17-.09,3.51-.26,4.42-.69,1.6-.61,1.99-1.95,1.99-4.42v-41.94c0-2.64-.56-3.81-2.08-4.42-.74-.35-2.43-.52-4.33-.69v-3.42h42.8v14.47h-3.16c-2.08-8.19-5.2-10.14-12.48-10.14h-9.7v22.14h7.71c2.43,0,3.77-.69,4.33-2.21.43-.95.65-3.16.82-5.2h3.51v19.15h-3.51c-.17-1.34-.35-3.99-.82-5.03-.56-1.69-1.91-2.38-4.33-2.38h-7.71v23.83h11.05c8.19,0,10.96-3.64,14.12-13.34l2.86.35-1.26,17.37h-44.23v-3.42Z" style="fill: #000; stroke-width: 0px;"/>
  <path d="M1227.81,613.71c-13.73,0-17.46,12.35-17.46,26.38,0,15.99,4.25,26.9,17.16,26.9,8.97,0,13.56-7.06,15.64-14.9h3.03v13c-4.68,3.81-11.44,6.02-18.8,6.02-17.46,0-29.2-12.52-29.2-30.2,0-18.63,12.69-31.41,30.11-31.41,6.46,0,12.69,1.6,17.89,4.59v15.25h-3.03c-2.34-9.1-6.67-15.64-15.29-15.64h-.04Z" style="fill: #000; stroke-width: 0px;"/>
  <path d="M1271.27,618.57v30.98c0,10.7,4.12,16.59,14.12,16.59s14.47-6.89,14.47-16.68v-27.99c-.17-2.9-1.17-4.59-2.69-5.63-1.43-.95-3.25-1.52-5.37-1.78v-3.16h21.49v3.16c-1.69.26-3.34.69-4.77,1.43-1.82,1.04-3.16,2.9-3.25,6.11v27.64c0,12.91-7.8,21.79-22.48,21.79-12.87,0-22.57-6.37-22.57-20.75v-31.24c0-2.3-.65-3.64-2.17-4.16-1.08-.35-2.86-.52-4.25-.61v-3.42h24v3.42c-2.08.26-3.25.17-4.33.61-1.34.52-2.08,1.69-2.17,3.64l-.04.04Z" style="fill: #000; stroke-width: 0px;"/>
  <path d="M1352.19,641.79l12.95,18.11c3.25,4.51,5.85,6.02,10.05,6.54l-.26,3.42h-15.99l-18.33-26.99h-4.25v18.8c0,2.3.74,3.64,2.25,4.16,1.17.35,2.86.43,4.85.61v3.42h-24.56v-3.42c1.43-.09,3.25-.17,4.25-.61,1.52-.52,2.17-1.86,2.17-4.16v-42.63c0-2.3-.65-3.64-2.17-4.16-1-.35-2.25-.35-4.25-.61v-3.42h27.77c10.14,0,18.59,4.16,18.59,14.82,0,8.27-5.59,13.78-13.04,16.07l-.04.04ZM1336.38,615.27v23.22h5.59c7.75,0,11.31-3.81,11.31-12,0-6.97-3.51-11.22-9.96-11.22h-6.93Z" style="fill: #000; stroke-width: 0px;"/>
  <path d="M1395.47,661.72c0,2.38.74,3.6,2.25,4.16.74.35,2.6.43,4.25.61v3.42h-24v-3.42c1.08-.09,3.42-.17,4.25-.61,1.6-.52,2.17-1.86,2.17-4.16v-42.63c0-2.38-.65-3.6-2.17-4.16-.74-.35-2.6-.43-4.25-.61v-3.42h24v3.42c-1.17.09-3.42.17-4.33.61-1.52.52-2.17,1.86-2.17,4.16v42.63Z" style="fill: #000; stroke-width: 0px;"/>
  <path d="M1438.71,615.1v46.62c0,2.3.65,3.64,2.17,4.16,1.08.35,2.25.35,4.33.61v3.42h-24.09v-3.42c1.52-.09,3.34-.17,4.33-.61,1.52-.52,2.17-1.86,2.17-4.16v-46.62h-3.42c-7.54,0-10.87,3.08-12.95,11.22h-2.99v-15.38h49.82v15.38h-3.03c-2.08-8.19-5.37-11.22-12.87-11.22h-3.51.04Z" style="fill: #000; stroke-width: 0px;"/>
  <path d="M1480.65,621.55l9.96,18.98,10.14-18.72c.56-1.17.91-2.3.91-3.16,0-2.82-2.77-4.16-6.5-4.25v-3.51h20.23v3.08c-3.25.35-5.94,1.95-8.27,6.02l-13.73,24.17v17.5c0,2.38.65,3.6,2.17,4.16.74.35,2.6.43,4.25.61v3.42h-24v-3.42c1.17-.09,3.42-.17,4.33-.61,1.52-.52,2.17-1.86,2.17-4.16v-17.5l-13.95-25c-1.78-2.99-3.6-4.25-7.19-4.77v-3.51h25.43v3.51c-4.68.43-6.76,2.04-6.76,4.33,0,.87.26,1.86.82,2.82h0Z" style="fill: #000; stroke-width: 0px;"/>
  <path d="M1608.53,661.72c0,2.38.69,3.6,2.21,4.16.78.35,2.64.43,4.33.61v3.42h-24.43v-3.42c1.17-.09,3.51-.17,4.42-.61,1.52-.52,2.21-1.86,2.21-4.16v-39.73l-18.63,36.09h-3.25l-18.63-35.91v36.48c0,3.34,1.04,5.2,2.73,6.28,1.43.95,3.34,1.52,5.46,1.78v3.16h-21.96v-3.16c1.78-.26,3.42-.69,4.85-1.43,1.95-1.04,3.34-3.08,3.34-6.63v-38.12c0-2.73-.61-4.16-2.12-5.03-.95-.69-3.16-1.04-5.29-1.17v-3.42h18.46l17.55,33.88,17.81-33.88h17.55v3.42c-1.13.09-3.51.17-4.33.61-1.6.52-2.21,1.86-2.21,4.16v42.63h-.04Z" style="fill: #000; stroke-width: 0px;"/>
  <path d="M1633.79,665.87c.78.17,2.9.43,4.85.61v3.42h-19.67v-3.42c1.21-.09,2.82-.61,3.73-.95,1.69-.61,2.64-1.69,3.42-3.81l20.28-51.9h5.46l18.63,51.9c.78,2.3,1.69,3.25,3.42,3.81.95.35,2.38.87,3.6.95v3.42h-24.95v-3.42c1.78-.17,3.6-.43,4.51-.69,1.6-.52,2.99-1.78,2.21-4.07l-4.07-12.26h-19.24l-4.59,12.26c-.78,2.04.17,3.64,2.47,4.16h-.04ZM1637.6,644.95h16.03l-7.41-22.4-8.62,22.4Z" style="fill: #000; stroke-width: 0px;"/>
  <path d="M1729.8,670.21l-34.66-46.53v34.96c0,3.34,1.04,5.2,2.73,6.28,1.43.95,3.34,1.52,5.46,1.78v3.16h-21.88v-3.16c1.78-.26,3.42-.69,4.85-1.43,1.95-1.04,3.34-3.08,3.34-6.63v-34.7c0-5.89-2.3-9.18-7.75-9.96v-3.08h16.94l31.58,41.24v-30.02c0-3.34-1.04-5.2-2.73-6.28-1.43-.95-3.34-1.52-5.46-1.78v-3.16h21.96v3.16c-1.78.26-3.42.69-4.85,1.43-1.95,1.04-3.34,3.08-3.34,6.63v48.05h-6.2v.04Z" style="fill: #000; stroke-width: 0px;"/>
  <path d="M1760.25,665.87c.78.17,2.9.43,4.85.61v3.42h-19.67v-3.42c1.17-.09,2.82-.61,3.73-.95,1.69-.61,2.64-1.69,3.42-3.81l20.28-51.9h5.46l18.63,51.9c.78,2.3,1.69,3.25,3.42,3.81.95.35,2.38.87,3.6.95v3.42h-24.95v-3.42c1.78-.17,3.6-.43,4.51-.69,1.6-.52,2.99-1.78,2.21-4.07l-4.07-12.26h-19.24l-4.59,12.26c-.78,2.04.17,3.64,2.47,4.16h-.04ZM1764.06,644.95h16.03l-7.41-22.4-8.62,22.4Z" style="fill: #000; stroke-width: 0px;"/>
  <path d="M1837.37,613.71c-13.52,0-18.24,12.35-18.24,26.38,0,15.99,4.94,26.9,18.15,26.9,2.99,0,6.07-.87,8.92-2.3v-14.38c0-2.3-.78-3.64-2.21-4.16-.95-.35-3.16-.43-4.94-.61v-3.42h23.18v3.42c-1.13.09-2.04.35-2.9.87-1.34.69-1.86,1.78-1.86,3.9v15.47c-4.33,2.99-12.69,5.46-21.01,5.37-17.81-.26-29.72-11.39-29.72-29.94s13.52-31.67,31.5-31.67c6.37,0,14.12,1.6,19.24,4.59v15.25h-3.08c-2.56-9.44-7.75-15.64-17.03-15.64v-.04Z" style="fill: #000; stroke-width: 0px;"/>
  <path d="M1869.21,666.48c1.21-.09,3.6-.26,4.51-.69,1.6-.61,2.04-1.95,2.04-4.42v-41.94c0-2.64-.61-3.81-2.12-4.42-.78-.35-2.47-.52-4.42-.69v-3.42h43.58v14.47h-3.25c-2.12-8.19-5.29-10.14-12.69-10.14h-9.88v22.14h7.84c2.47,0,3.81-.69,4.42-2.21.43-.95.69-3.16.87-5.2h3.6v19.15h-3.6c-.17-1.34-.35-3.99-.87-5.03-.61-1.69-1.95-2.38-4.42-2.38h-7.84v23.83h11.22c8.36,0,11.13-3.64,14.38-13.34l2.9.35-1.26,17.37h-45.06v-3.42h.04Z" style="fill: #000; stroke-width: 0px;"/>
  <path d="M1988.13,661.72c0,2.38.69,3.6,2.21,4.16.78.35,2.64.43,4.33.61v3.42h-24.43v-3.42c1.17-.09,3.51-.17,4.42-.61,1.52-.52,2.21-1.86,2.21-4.16v-39.73l-18.63,36.09h-3.25l-18.63-35.91v36.48c0,3.34,1.04,5.2,2.73,6.28,1.43.95,3.34,1.52,5.46,1.78v3.16h-21.96v-3.16c1.78-.26,3.42-.69,4.85-1.43,1.95-1.04,3.34-3.08,3.34-6.63v-38.12c0-2.73-.61-4.16-2.12-5.03-.95-.69-3.16-1.04-5.29-1.17v-3.42h18.46l17.55,33.88,17.81-33.88h17.55v3.42c-1.13.09-3.51.17-4.33.61-1.6.52-2.21,1.86-2.21,4.16v42.63h-.04Z" style="fill: #000; stroke-width: 0px;"/>
  <path d="M2002.82,666.48c1.21-.09,3.6-.26,4.51-.69,1.6-.61,2.04-1.95,2.04-4.42v-41.94c0-2.64-.61-3.81-2.12-4.42-.78-.35-2.47-.52-4.42-.69v-3.42h43.58v14.47h-3.25c-2.12-8.19-5.29-10.14-12.69-10.14h-9.88v22.14h7.84c2.47,0,3.81-.69,4.42-2.21.43-.95.69-3.16.87-5.2h3.6v19.15h-3.6c-.17-1.34-.35-3.99-.87-5.03-.61-1.69-1.95-2.38-4.42-2.38h-7.84v23.83h11.22c8.36,0,11.13-3.64,14.38-13.34l2.9.35-1.26,17.37h-45.06v-3.42h.04Z" style="fill: #000; stroke-width: 0px;"/>
  <path d="M2104.71,670.21l-34.66-46.53v34.96c0,3.34,1.04,5.2,2.73,6.28,1.43.95,3.34,1.52,5.46,1.78v3.16h-21.88v-3.16c1.78-.26,3.42-.69,4.85-1.43,1.95-1.04,3.34-3.08,3.34-6.63v-34.7c0-5.89-2.3-9.18-7.75-9.96v-3.08h16.94l31.58,41.24v-30.02c0-3.34-1.04-5.2-2.73-6.28-1.43-.95-3.34-1.52-5.46-1.78v-3.16h21.96v3.16c-1.78.26-3.42.69-4.85,1.43-1.95,1.04-3.34,3.08-3.34,6.63v48.05h-6.2v.04Z" style="fill: #000; stroke-width: 0px;"/>
  <path d="M2154.84,615.1v46.62c0,2.3.69,3.64,2.21,4.16,1.13.35,2.3.35,4.42.61v3.42h-24.52v-3.42c1.52-.09,3.42-.17,4.42-.61,1.52-.52,2.21-1.86,2.21-4.16v-46.62h-3.51c-7.67,0-11.05,3.08-13.21,11.22h-3.08v-15.38h50.73v15.38h-3.08c-2.12-8.19-5.46-11.22-13.13-11.22h-3.6.13Z" style="fill: #000; stroke-width: 0px;"/>
  <path d="M2203.31,665.87c.78.17,2.99.43,4.98.61v3.42h-20.23v-3.42c1.21-.09,2.9-.61,3.86-.95,1.78-.61,2.73-1.69,3.51-3.81l20.88-51.9h5.59l19.19,51.9c.78,2.3,1.78,3.25,3.51,3.81.95.35,2.47.87,3.68.95v3.42h-25.69v-3.42c1.82-.17,3.68-.43,4.64-.69,1.65-.52,3.08-1.78,2.3-4.07l-4.2-12.26h-19.8l-4.72,12.26c-.78,2.04.17,3.64,2.56,4.16h-.04ZM2207.26,644.95h16.46l-7.62-22.4-8.84,22.4Z" style="fill: #000; stroke-width: 0px;"/>
  <path d="M2282.29,613.71c-14.38,0-18.33,12.35-18.33,26.38,0,15.99,4.46,26.9,17.98,26.9,9.4,0,14.21-7.06,16.38-14.9h3.16v13c-4.9,3.81-12,6.02-19.71,6.02-18.33,0-30.59-12.52-30.59-30.2,0-18.63,13.34-31.41,31.54-31.41,6.76,0,13.34,1.6,18.76,4.59v15.25h-3.16c-2.47-9.1-7.02-15.64-16.03-15.64h0Z" style="fill: #000; stroke-width: 0px;"/>
  <path d="M2340.82,615.1v46.62c0,2.3.69,3.64,2.3,4.16,1.13.35,2.38.35,4.55.61v3.42h-25.26v-3.42c1.56-.09,3.51-.17,4.55-.61,1.56-.52,2.3-1.86,2.3-4.16v-46.62h-3.6c-7.88,0-11.39,3.08-13.6,11.22h-3.16v-15.38h52.25v15.38h-3.16c-2.21-8.19-5.59-11.22-13.52-11.22h-3.68.04Z" style="fill: #000; stroke-width: 0px;"/>
  <g>
    <path d="M1209.79.78v81.19h-331.42v119.01h206.04c125.29,0,126.94,1.73,126.94,133.43,0,28.03.78,56.1-.22,84.13-1.3,35.74-20.32,61.91-52.81,62.6-120.22,2.6-240.49,1.04-363.57,1.04v-82.18h330.64v-116.24c-45.45,0-89.94.13-134.47,0-43.71-.13-87.51.78-131.14-1.26-47.44-2.21-67.02-24.48-67.5-73.78-.48-46.27-.74-92.54.56-138.81,1.21-42.98,21.92-68.23,59.79-68.67,117.75-1.3,235.5-.48,357.15-.48Z" style="fill: #051769; stroke-width: 0px;"/>
    <path d="M1999.65,479.5h-83.14V202.32h331.98v-120.44h-330.73c-.52-57.19,17.94-80.71,63.34-81.19,96.74-1.08,193.52-.78,290.26.09,35.05.3,60.91,19.76,61.39,57.62,1.82,139.67.74,279.35.74,421.05h-80.49v-192.7h-253.31v192.74h-.04Z" style="fill: #051769; stroke-width: 0px;"/>
    <path d="M1329.32,479.24c-.3-133.17-.35-280.34.39-413.52.22-38.17,23.31-64.25,59.31-64.64,113.94-1.3,227.88-1.56,341.82.22,34.23.52,59.27,22.92,59.7,60.57,1.56,138.37.61,276.79.61,417.42h-83.44V84.13h-294.68v395.1" style="fill: #051769; stroke-width: 0px;"/>
    <path d="M55.58,478.46c-.22-121.91-.17-275.45.26-397.36C56.02,22.1,76.77.78,133,.61c111.08-.3,222.2-.09,338.18-.09v80.67H140.06v117.75h330.51v84.13H138.55v195.43" style="fill: #051769; stroke-width: 0px;"/>
    <path d="M673.89,479.98h-76.9V3.73h76.9v476.25Z" style="fill: #051769; stroke-width: 0px;"/>
    <path d="M1599.05,479.37h-77.85V120.83h77.85v358.58-.04Z" style="fill: #051769; stroke-width: 0px;"/>
  </g>
  <path d="M0,538.89h2400v21.96H0v-21.96Z" style="fill: #000; stroke-width: 0px;"/>
</svg>