<?xml version="1.0" encoding="UTF-8"?>
<svg xmlns="http://www.w3.org/2000/svg" width="92" height="40" viewBox="0 0 92 40" fill="none">
  <path d="M0 1.09961H19.4V4.4996L15.4 4.8996C15.3 9.4996 15.3 14.1996 15.3 18.8996V20.6996C15.3 25.3996 15.3 30.0996 15.4 34.6996L19.4 35.0996V38.4996H0V35.0996L4 34.6996C4.1 30.0996 4.1 25.3996 4.1 20.6996V18.8996C4.1 14.2996 4.1 9.5996 4 4.8996L0 4.4996V1.09961Z" fill="#2D5CA3"></path>
  <path d="M22.8 36.7L23.1001 28H29.2001L30.3 35.2C32 35.8 33.7001 36.1 35.7001 36.1C39.3001 36.1 40.9001 33.8 40.9001 31.2C40.9001 28.4 39.7 27.2 36.8 25.8L34.3 24.6C27.2 21.2 23.3 17.8 23.3 11.2C23.3 4.2 28.9001 0 38.1001 0C42.3001 0 46.6001 1 49.5001 2.9L49.0001 11.2H43.0001L42.0001 4.4C40.9001 3.9 39.7001 3.7 38.4001 3.7C35.6001 3.7 33.2001 5.7 33.2001 8.4C33.2001 11.2 34.8001 12.6 37.9001 14.1L40.8 15.5C48 18.9 51.1001 22 51.1001 28C51.1001 34.8 46.1001 39.8 35.6001 39.8C31.4001 39.6 26.3 38.8 22.8 36.7Z" fill="#2D5CA3"></path>
  <path d="M54.3 19.8C54.3 6.3 63.1 0 72.8 0C82.5 0 91.3 6.4 91.3 19.8C91.3 33.2 82.5 39.6 72.8 39.6C63.1 39.6 54.3 33.3 54.3 19.8ZM79.5001 19.8C79.5001 10 77.7 3.4 72.8 3.4C67.9 3.4 66.1001 10 66.1001 19.8C66.1001 29.7 67.9 36.1 72.8 36.1C77.7 36.1 79.5001 29.7 79.5001 19.8Z" fill="#2D5CA3"></path>
</svg>
