<svg version="1.1" id="Ebene_1" xmlns="http://www.w3.org/2000/svg" xmlns:xlink="http://www.w3.org/1999/xlink" x="0px" y="0px" enable-background="new 0 41.292 120 37.458" xml:space="preserve" viewBox="0 41.48 120 37.03">
<g>
	<path fill="#020204" d="M120,71.244v-0.643h-0.803c-0.344,0-0.848,0-1.055,0.023l1.834-2.751v-0.481h-2.636v0.619h0.802   c0.413,0,0.803,0,1.032-0.023l-1.856,2.773v0.505H120V71.244z M116.607,70.647c-0.138,0.022-0.344,0.069-0.527,0.069   c-0.412,0-0.527-0.184-0.527-0.757v-2.04h1.078v-0.551h-1.078v-1.443l-0.711,0.206v1.261h-0.779v0.551h0.779v2.223   c0,0.848,0.253,1.17,1.055,1.17c0.252,0,0.551-0.023,0.757-0.092L116.607,70.647z M113.353,71.244v-3.875h-0.711v1.857   c0,0.871-0.458,1.513-1.101,1.513c-0.504,0-0.664-0.321-0.664-0.871v-2.499h-0.688v2.705c0,0.688,0.275,1.238,1.169,1.238   c0.665,0,1.146-0.367,1.375-0.895h0.022c-0.045,0.229-0.068,0.596-0.068,0.826H113.353z M108.859,71.244v-2.705   c0-0.688-0.275-1.238-1.169-1.238c-0.642,0-1.123,0.344-1.353,0.871h-0.022c0.046-0.206,0.068-0.527,0.068-0.779v-1.834h-0.71   v5.708h0.71V69.41c0-0.871,0.458-1.514,1.101-1.514c0.527,0,0.664,0.321,0.664,0.871v2.499h0.711V71.244z M104.688,70.51   c-0.275,0.115-0.572,0.184-0.916,0.184c-0.871,0-1.102-0.596-1.102-1.353c0-0.849,0.391-1.444,1.078-1.444   c0.32,0,0.642,0.069,0.894,0.184l0.138-0.596c-0.275-0.092-0.596-0.16-0.963-0.16c-1.261,0-1.902,0.894-1.902,2.131   c0,1.422,0.779,1.881,1.696,1.881c0.39,0,0.825-0.069,1.146-0.207L104.688,70.51z M100.975,67.347   c-0.229-0.046-0.505-0.069-0.757-0.069c-1.009,0-1.536,0.505-1.536,1.124c0,1.353,1.811,0.917,1.811,1.765   c0,0.367-0.297,0.573-0.824,0.573c-0.299,0-0.665-0.069-0.918-0.161l-0.045,0.619c0.252,0.069,0.596,0.092,0.916,0.092   c1.055,0,1.605-0.527,1.605-1.191c0-1.353-1.834-0.939-1.834-1.766c0-0.32,0.252-0.527,0.756-0.527   c0.253,0,0.551,0.047,0.757,0.115L100.975,67.347z M97.65,71.244v-2.705c0-0.688-0.275-1.238-1.169-1.238   c-0.665,0-1.146,0.367-1.376,0.895h-0.022c0.046-0.229,0.069-0.597,0.069-0.826h-0.688v3.875h0.71v-1.857   c0-0.871,0.458-1.513,1.101-1.513c0.527,0,0.664,0.321,0.664,0.871v2.499H97.65z M90.889,68.859   c0.068-0.664,0.458-1.031,0.963-1.031c0.55,0,0.894,0.367,0.871,1.031H90.889z M93.227,70.533c-0.39,0.137-0.757,0.206-1.146,0.206   c-0.825,0-1.215-0.436-1.191-1.398h2.544c0,0,0.022-0.229,0.022-0.458c0-0.871-0.458-1.605-1.535-1.605   c-1.101,0-1.742,0.871-1.742,2.041c0,1.375,0.642,1.994,1.834,1.994c0.458,0,0.916-0.092,1.329-0.229L93.227,70.533z    M89.169,67.347h-0.688v3.874h0.71v-3.874H89.169z M89.283,66.132c0-0.252-0.206-0.458-0.458-0.458s-0.458,0.206-0.458,0.458   s0.206,0.458,0.458,0.458S89.283,66.384,89.283,66.132 M86.441,69.227c0,0.688-0.367,1.49-1.078,1.49   c-0.596,0-0.848-0.482-0.848-1.307c0-1.123,0.481-1.559,1.238-1.559c0.229,0,0.458,0.022,0.688,0.092V69.227z M87.152,71.244   v-5.709h-0.688v1.812c-0.253-0.022-0.436-0.046-0.666-0.046c-1.237,0-2.017,0.825-2.017,2.178c0,1.123,0.458,1.834,1.421,1.834   c0.619,0,1.078-0.344,1.307-0.871h0.023c-0.046,0.229-0.068,0.572-0.068,0.779h0.688V71.244z M80.527,68.859   c0.068-0.664,0.459-1.031,0.963-1.031c0.55,0,0.894,0.367,0.871,1.031H80.527z M82.865,70.533c-0.39,0.137-0.756,0.206-1.146,0.206   c-0.824,0-1.215-0.436-1.191-1.398h2.545c0,0,0.022-0.229,0.022-0.458c0-0.871-0.458-1.605-1.536-1.605   c-1.1,0-1.742,0.871-1.742,2.041c0,1.375,0.643,1.994,1.834,1.994c0.459,0,0.917-0.092,1.33-0.229L82.865,70.533z M78.809,71.244   v-2.683c0-0.894-0.413-1.284-1.146-1.284c-0.757,0-1.17,0.527-1.33,0.895c-0.022-0.32-0.252-0.895-1.077-0.895   c-0.618,0-1.123,0.344-1.353,0.895l0,0c0.046-0.229,0.046-0.596,0.046-0.825h-0.688v3.874h0.71v-1.834   c0-0.895,0.482-1.535,1.078-1.535c0.527,0,0.642,0.389,0.642,0.894v2.499h0.688V69.41c0-0.94,0.526-1.536,1.076-1.536   c0.505,0,0.643,0.344,0.643,0.894v2.499h0.711V71.244z M71.244,69.227c0,0.688-0.367,1.49-1.078,1.49   c-0.596,0-0.848-0.482-0.848-1.307c0-1.123,0.48-1.559,1.237-1.559c0.229,0,0.458,0.022,0.688,0.092V69.227L71.244,69.227z    M71.932,71.244v-5.709h-0.688v1.812c-0.253-0.022-0.436-0.046-0.666-0.046c-1.237,0-2.017,0.825-2.017,2.178   c0,1.123,0.458,1.834,1.421,1.834c0.619,0,1.078-0.344,1.307-0.871h0.023c-0.046,0.229-0.068,0.572-0.068,0.779h0.688V71.244z    M67.576,71.244v-2.705c0-0.688-0.275-1.238-1.17-1.238c-0.664,0-1.146,0.367-1.375,0.895h-0.022   c0.046-0.229,0.068-0.597,0.068-0.826H64.39v3.875h0.71v-1.857c0-0.871,0.459-1.513,1.102-1.513c0.504,0,0.664,0.321,0.664,0.871   v2.499H67.576z M60.837,68.859c0.068-0.664,0.458-1.031,0.962-1.031c0.551,0,0.895,0.367,0.871,1.031H60.837z M63.175,70.533   c-0.39,0.137-0.757,0.206-1.146,0.206c-0.826,0-1.215-0.436-1.192-1.398h2.544c0,0,0.023-0.229,0.023-0.458   c0-0.871-0.459-1.605-1.536-1.605c-1.101,0-1.742,0.871-1.742,2.041c0,1.375,0.642,1.994,1.834,1.994   c0.458,0,0.917-0.092,1.329-0.229L63.175,70.533z M58.499,68.676c0,0.505-0.321,0.871-0.871,0.871s-0.871-0.366-0.871-0.871   c0-0.504,0.321-0.871,0.871-0.871S58.499,68.172,58.499,68.676 M57.353,71.197l0.642,0.023c0.642,0.023,0.894,0.275,0.894,0.642   c0,0.481-0.39,0.825-1.192,0.825c-0.642,0-1.055-0.252-1.055-0.733c0-0.274,0.184-0.573,0.504-0.779   C57.215,71.197,57.284,71.197,57.353,71.197 M59.553,67.92v-0.551h-1.33c-0.184-0.045-0.367-0.068-0.55-0.068   c-1.054,0-1.582,0.643-1.582,1.444c0,0.436,0.183,0.825,0.573,1.077c-0.275,0.184-0.436,0.39-0.436,0.665   c0,0.252,0.115,0.436,0.344,0.573c-0.367,0.229-0.665,0.619-0.665,1.055c0,0.732,0.642,1.146,1.65,1.146   c1.238,0,2.018-0.619,2.018-1.467c0-0.688-0.458-1.101-1.398-1.146l-0.619-0.022c-0.458-0.023-0.596-0.115-0.596-0.299   c0-0.092,0.069-0.229,0.206-0.32c0.115,0.023,0.275,0.023,0.413,0.023c1.055,0,1.582-0.619,1.582-1.445   c0-0.252-0.068-0.48-0.206-0.688h0.596V67.92z M54.968,71.244v-3.875h-0.71v1.857c0,0.871-0.458,1.513-1.1,1.513   c-0.504,0-0.665-0.321-0.665-0.871v-2.499h-0.688v2.705c0,0.688,0.275,1.238,1.169,1.238c0.665,0,1.146-0.367,1.375-0.895h0.023   c-0.046,0.229-0.069,0.596-0.069,0.826H54.968z M50.476,65.971h-0.71v3.852c0,0.688-0.275,0.871-0.71,0.871   c-0.184,0-0.458-0.046-0.596-0.092v0.619c0.161,0.046,0.413,0.068,0.642,0.068c0.963,0,1.398-0.55,1.398-1.443v-3.875H50.476z" style="--darkreader-inline-fill: #020203;" data-darkreader-inline-fill=""/>
	<path fill="#020204" d="M101.776,57.902c-0.779-0.068-1.169,0.458-1.329,0.986h-0.023c0.068-0.321,0.092-0.688,0.092-0.917h-0.688   v3.875h0.711v-1.559c0-1.238,0.389-1.834,1.215-1.696L101.776,57.902z M96.573,56.756c0-0.229-0.184-0.413-0.413-0.413   c-0.229,0-0.412,0.184-0.412,0.413c0,0.229,0.184,0.413,0.412,0.413C96.39,57.169,96.573,56.986,96.573,56.756 M98.086,56.756   c0-0.229-0.184-0.413-0.412-0.413c-0.229,0-0.413,0.184-0.413,0.413c0,0.229,0.184,0.413,0.413,0.413   C97.902,57.169,98.086,56.986,98.086,56.756 M98.498,61.868v-3.897h-0.71v1.857c0,0.871-0.458,1.513-1.101,1.513   c-0.504,0-0.664-0.321-0.664-0.871v-2.499h-0.688v2.705c0,0.688,0.274,1.238,1.168,1.238c0.665,0,1.146-0.367,1.376-0.895h0.022   c-0.045,0.229-0.068,0.597-0.068,0.826h0.664V61.868z M94.556,57.971h-1.077v-0.298c0-0.688,0.252-1.009,0.779-1.009   c0.298,0,0.573,0.092,0.573,0.092l0.069-0.596c0,0-0.322-0.069-0.619-0.069c-0.94,0-1.514,0.504-1.514,1.627v0.252h-0.802v0.55   h0.802v3.347h0.711v-3.347h1.077V57.971z M89.582,61.868v-2.728c0-0.688-0.275-1.238-1.17-1.238c-0.664,0-1.146,0.367-1.375,0.894   h-0.023c0.047-0.229,0.069-0.596,0.069-0.825h-0.688v3.875h0.71v-1.857c0-0.871,0.459-1.513,1.101-1.513   c0.527,0,0.665,0.321,0.665,0.871v2.499h0.711V61.868z M84.699,59.92c0,0.985-0.481,1.421-1.101,1.421   c-0.688,0-1.077-0.504-1.077-1.421c0-0.94,0.436-1.421,1.1-1.421C84.287,58.499,84.699,59.003,84.699,59.92 M85.433,59.851   c0-1.33-0.688-1.949-1.742-1.949c-1.237,0-1.902,0.917-1.902,2.063c0,1.329,0.688,1.948,1.742,1.948   C84.768,61.938,85.433,61.02,85.433,59.851 M80.803,57.971h-0.711v3.875h0.711V57.971z M80.917,56.756   c0-0.252-0.206-0.458-0.458-0.458c-0.253,0-0.459,0.207-0.459,0.458c0,0.252,0.206,0.458,0.459,0.458   C80.711,57.192,80.917,56.986,80.917,56.756 M78.785,57.971c-0.229-0.046-0.504-0.069-0.756-0.069c-1.01,0-1.537,0.504-1.537,1.124   c0,1.353,1.812,0.917,1.812,1.765c0,0.367-0.298,0.572-0.825,0.572c-0.298,0-0.664-0.068-0.917-0.16l-0.046,0.619   c0.252,0.068,0.596,0.092,0.917,0.092c1.055,0,1.604-0.527,1.604-1.191c0-1.353-1.834-0.94-1.834-1.766   c0-0.321,0.252-0.527,0.757-0.527c0.252,0,0.55,0.046,0.757,0.115L78.785,57.971z M75.461,57.971   c-0.229-0.046-0.504-0.069-0.756-0.069c-1.009,0-1.536,0.504-1.536,1.124c0,1.353,1.812,0.917,1.812,1.765   c0,0.367-0.299,0.572-0.826,0.572c-0.297,0-0.664-0.068-0.916-0.16l-0.047,0.619c0.253,0.068,0.597,0.092,0.918,0.092   c1.054,0,1.604-0.527,1.604-1.191c0-1.353-1.833-0.94-1.833-1.766c0-0.321,0.252-0.527,0.757-0.527   c0.252,0,0.549,0.046,0.756,0.115L75.461,57.971z M72.138,57.971h-0.711v3.875h0.711V57.971z M72.252,56.756   c0-0.252-0.206-0.458-0.458-0.458c-0.253,0-0.458,0.207-0.458,0.458c0,0.252,0.205,0.458,0.458,0.458   C72.046,57.215,72.252,56.986,72.252,56.756 M70.098,61.868v-2.682c0-0.894-0.413-1.284-1.146-1.284   c-0.756,0-1.169,0.504-1.33,0.894c-0.022-0.321-0.252-0.894-1.076-0.894c-0.619,0-1.123,0.344-1.354,0.894l0,0   c0.047-0.229,0.047-0.596,0.047-0.825h-0.688v3.875h0.71v-1.834c0-0.894,0.481-1.536,1.077-1.536c0.527,0,0.643,0.39,0.643,0.894   v2.499h0.688v-1.834c0-0.939,0.527-1.536,1.077-1.536c0.505,0,0.642,0.344,0.642,0.894v2.498h0.711V61.868z M63.221,61.868v-2.682   c0-0.894-0.412-1.284-1.146-1.284c-0.756,0-1.169,0.504-1.329,0.894c-0.022-0.321-0.252-0.894-1.078-0.894   c-0.619,0-1.123,0.344-1.352,0.894l0,0c0.045-0.229,0.045-0.596,0.045-0.825h-0.688v3.875h0.71v-1.834   c0-0.894,0.481-1.536,1.078-1.536c0.527,0,0.642,0.39,0.642,0.894v2.499h0.688v-1.834c0-0.939,0.527-1.536,1.077-1.536   c0.505,0,0.642,0.344,0.642,0.894v2.498h0.711V61.868z M55.977,59.92c0,0.985-0.481,1.421-1.1,1.421   c-0.688,0-1.078-0.504-1.078-1.421c0-0.94,0.436-1.421,1.101-1.421C55.587,58.499,55.977,59.003,55.977,59.92 M56.71,59.851   c0-1.33-0.688-1.949-1.742-1.949c-1.238,0-1.902,0.917-1.902,2.063c0,1.329,0.688,1.948,1.742,1.948   C56.046,61.938,56.71,61.02,56.71,59.851 M52.882,61.868l-2.315-2.728l2.224-2.544H51.92l-2.086,2.476v-2.499h-0.711v5.272h0.711   v-2.591l2.086,2.613H52.882z" style="--darkreader-inline-fill: #020203;" data-darkreader-inline-fill=""/>
	<path fill="#0B65AF" d="M40.092,71.244V61.41c0-3.232-1.559-4.677-4.241-4.677c-2.751,0-4.264,1.903-4.883,3.232   c-0.114-1.169-0.917-3.232-3.919-3.232c-2.292,0-4.126,1.284-4.951,3.301l-0.023-0.023c0.137-0.871,0.206-2.154,0.206-3.002h-2.499   v14.235h2.59v-6.763c0-3.278,1.811-5.616,3.988-5.616c1.949,0,2.315,1.444,2.315,3.232v9.146h2.544v-6.763   c0-3.462,1.948-5.616,3.988-5.616c1.857,0,2.315,1.284,2.315,3.232v9.146H40.092z M15.977,56.986h-2.544v16.045   c0,2.545-0.55,3.301-2.086,3.301c-1.123,0-2.017-0.32-2.017-0.32L9.1,78.281c0,0,1.009,0.229,2.155,0.229   c3.416,0,4.722-1.902,4.722-5.707V56.986z M16.413,52.493c0-0.939-0.779-1.696-1.696-1.696c-0.94,0-1.719,0.757-1.719,1.696   c0,0.94,0.779,1.673,1.719,1.673C15.633,54.166,16.413,53.41,16.413,52.493 M11.141,71.244l-5.914-7.863l5.387-6.395H7.587   L2.59,63.244V50.315H0v20.929h2.59v-7.336l5.272,7.336H11.141z" style="--darkreader-inline-fill: #09518c;" data-darkreader-inline-fill=""/>
	<path fill="#0B65AF" d="M40.321,45.708C35.163,42.43,30.235,41.49,26.04,41.49c-4.218,0-8.756,0.803-14.097,4.149l0.917,1.948   c4.081-2.407,8.458-3.576,13.364-3.576c4.653,0,9.192,1.215,13.18,3.553L40.321,45.708z" style="--darkreader-inline-fill: #09518c;" data-darkreader-inline-fill=""/>
</g>
</svg>