<svg enable-background="new 0 0 500 500" viewBox="0 0 500 500" xmlns="http://www.w3.org/2000/svg"><path d="m498.1 250.3c0 137-111.1 248.1-248.2 248.1-137 0-248.1-111.1-248.1-248.1 0-137.1 111.1-248.2 248.1-248.2 137.1 0 248.2 111.1 248.2 248.2z" fill="#e01b22"/><g fill="#fff"><path d="m312 242.4c17.4 0 32.1-6.4 44.2-15.2v11.7h29.4v-85h-65.3v29.1h33.6c-.4 4.1-13.8 25.5-35.8 25.5-29.3 0-36.3-21-36.3-47.2 0-25.6 11.2-49.2 39.3-49.2 16.6 0 26.2 7.9 34.9 21.5l28.5-17.6c-16.6-22.4-37.9-35.4-65.9-35.4-11.3 0-22.8 2.5-32.9 7.7-29.4 14.7-41.3 43.8-41.3 75.8 0 41.2 24 78.3 67.6 78.3z"/><path d="m218.3 260.8c-9.8-3.8-22.7-4-32.9-4h-69.2v153h38.4v-50h25.5c21.5 0 41.9-1.8 56.6-19.5 7.6-9.2 10.6-21.3 10.6-32.9.1-21.1-8.6-39.1-29-46.6zm-40.5 70.6h-23.2v-46.4h24.5c16 0 30.3 2.8 30.3 22.4 0 21.4-13.6 24-31.6 24z"/><path d="m391.9 290.4c-17.2-29.9-47.2-33.6-78.7-33.6h-45.3v153h56.6c50.2 0 76.9-28.2 76.9-78 0-14.3-2.4-29-9.5-41.4zm-85.2 14.6c0-11.3 9.1-20.5 20.4-20.5 11.2 0 20.4 9.2 20.4 20.5v23.7h-9.2v-23.7c0-6.2-5-11.3-11.2-11.3s-11.3 5.1-11.3 11.3v23.7h-9.1zm47 68h-52.4v-40.5h52.4z"/><path d="m170.3 200.6h-15.7l.1-40v-46.4-28.2h-38.5v153h1.1 37.3 76.3v-38.4z"/></g></svg>