<?xml version="1.0" encoding="UTF-8"?>
<svg id="uuid-46d7f372-4306-4770-afc3-e12c17c92fb0" data-name="Layer 1" xmlns="http://www.w3.org/2000/svg" viewBox="0 0 1500.06 800">
  <path d="M397.65,4.62l142.35,484.06L682.34,4.62h385.98v48.12l-145.37,250.43c51.06,16.38,89.69,46.19,115.89,89.36,26.2,43.25,39.3,93.89,39.3,152.17,0,72.06-19.15,132.61-57.44,181.65-38.3,49.04-87.93,73.65-148.73,73.65-45.85,0-85.74-14.53-119.76-43.67s-59.21-68.53-75.58-118.33l80.45-33.34c11.76,30.15,27.38,53.83,46.69,71.13,19.32,17.38,42.07,26.03,68.19,26.03,27.46,0,50.72-15.37,69.7-46.11,18.98-30.74,28.47-67.77,28.47-111.02,0-47.79-10.16-84.82-30.4-110.94-23.6-30.74-60.63-46.19-111.02-46.19h-39.22v-47.11l137.48-237.67h-165.86l-9.41,16.04-201.81,681h-9.83l-147.3-492.88-147.3,492.88h-9.83L0,4.62h103.13l142.35,484.06,96.24-325.93L294.6,4.62h103.04,0Z" style="fill: #005a9c; stroke-width: 0px;"/>
  <path d="M1477.72.17l16.71,101.53-59.12,113.12s-22.67-48.04-60.38-74.57c-31.74-22.34-52.49-27.21-84.82-20.58-41.57,8.57-88.68,58.28-109.26,119.5-24.61,73.32-24.86,108.76-25.7,141.34-1.34,52.24,6.89,83.14,6.89,83.14,0,0-35.86-66.43-35.52-163.68.25-69.45,11.17-132.35,43.25-194.5,28.3-54.59,70.29-87.42,107.58-91.29,38.55-3.95,68.95,14.61,92.55,34.68,24.69,21.16,49.72,67.27,49.72,67.27L1477.72,0h.17l-.17.17Z" style="fill: #000; stroke-width: 0px;"/>
  <path d="M1485.03,574.68s-26.12,46.69-42.41,64.75c-16.29,17.97-45.43,49.72-81.38,65.59-35.94,15.87-54.84,18.81-90.36,15.45-35.52-3.44-68.53-24.02-80.12-32.58-11.59-8.57-41.15-33.84-57.86-57.44-16.71-23.6-42.83-70.71-42.83-70.71,0,0,14.53,47.2,23.68,67.27,5.21,11.59,21.33,46.86,44.26,77.51,21.33,28.64,62.82,77.93,125.72,89.1,62.99,11.17,106.24-17.13,116.99-24.02,10.67-6.8,33.26-25.78,47.53-41.07,14.86-15.96,29.06-36.28,36.78-48.46,5.71-8.9,15.03-26.96,15.03-26.96l-15.03-78.35v-.08Z" style="fill: #000; stroke-width: 0px;"/>
</svg>